<?xml version="1.0" encoding="UTF-8" standalone="no"?>
<!DOCTYPE svg PUBLIC "-//W3C//DTD SVG 1.1//EN" "http://www.w3.org/Graphics/SVG/1.1/DTD/svg11.dtd">
<svg width="100%" height="100%" viewBox="0 0 32 32" version="1.1" xmlns="http://www.w3.org/2000/svg" xmlns:xlink="http://www.w3.org/1999/xlink" xml:space="preserve" xmlns:serif="http://www.serif.com/" style="fill-rule:evenodd;clip-rule:evenodd;stroke-linecap:round;stroke-linejoin:round;stroke-miterlimit:1.5;">
    <g transform="matrix(1,0,0,1,-16,0)">
        <circle cx="32" cy="16" r="16" style="fill:white;"/>
    </g>
    <g transform="matrix(0.138929,0,0,0.138929,-68.928,-74.304)">
        <g transform="matrix(0.985015,0.172469,-0.152297,0.869808,132.708,1.04748)">
            <path d="M564,524.982L564,738.018C564,739.112 563.216,740 562.25,740L558.75,740C557.784,740 557,739.112 557,738.018L557,524.982C557,523.888 557.784,523 558.75,523L562.25,523C563.216,523 564,523.888 564,524.982Z" style="fill:rgb(234,179,8);stroke:black;stroke-width:3.18px;"/>
        </g>
        <g transform="matrix(0.985015,0.172469,-0.166821,0.952757,185.647,-48.335)">
            <path d="M564,524.809L564,738.191C564,739.189 563.216,740 562.25,740L558.75,740C557.784,740 557,739.189 557,738.191L557,524.809C557,523.811 557.784,523 558.75,523L562.25,523C563.216,523 564,523.811 564,524.809Z" style="fill:rgb(234,179,8);stroke:black;stroke-width:3.05px;"/>
        </g>
        <g transform="matrix(0.12503,-0.846408,0.261015,0.0385568,373.516,1110.41)">
            <path d="M564,528.675L564,734.325C564,737.457 563.216,740 562.25,740L558.75,740C557.784,740 557,737.457 557,734.325L557,528.675C557,525.543 557.784,523 558.75,523L562.25,523C563.216,523 564,525.543 564,528.675Z" style="fill:rgb(234,179,8);stroke:black;stroke-width:4.74px;"/>
        </g>
        <g transform="matrix(0.0674504,-0.85293,0.263026,0.0208003,409.65,1096.47)">
            <path d="M564,528.675L564,734.325C564,737.457 563.216,740 562.25,740L558.75,740C557.784,740 557,737.457 557,734.325L557,528.675C557,525.543 557.784,523 558.75,523L562.25,523C563.216,523 564,525.543 564,528.675Z" style="fill:rgb(234,179,8);stroke:black;stroke-width:4.74px;"/>
        </g>
        <g transform="matrix(0.00228691,-0.85559,0.263847,0.000705236,450.649,1082.18)">
            <path d="M564,528.675L564,734.325C564,737.457 563.216,740 562.25,740L558.75,740C557.784,740 557,737.457 557,734.325L557,528.675C557,525.543 557.784,523 558.75,523L562.25,523C563.216,523 564,525.543 564,528.675Z" style="fill:rgb(234,179,8);stroke:black;stroke-width:4.74px;"/>
        </g>
        <g transform="matrix(-0.030066,-0.855064,0.268293,-0.00943378,470.182,1060.56)">
            <path d="M564,528.577L564,734.423C564,737.501 563.216,740 562.25,740L558.75,740C557.784,740 557,737.501 557,734.423L557,528.577C557,525.499 557.784,523 558.75,523L562.25,523C563.216,523 564,525.499 564,528.577Z" style="fill:rgb(234,179,8);stroke:black;stroke-width:4.73px;"/>
        </g>
        <g transform="matrix(0.15953,-0.840588,0.259221,0.0491959,350.606,1128.09)">
            <path d="M564,528.675L564,734.325C564,737.457 563.216,740 562.25,740L558.75,740C557.784,740 557,737.457 557,734.325L557,528.675C557,525.543 557.784,523 558.75,523L562.25,523C563.216,523 564,525.543 564,528.675Z" style="fill:rgb(234,179,8);stroke:black;stroke-width:4.74px;"/>
        </g>
        <g transform="matrix(0.220912,-0.826581,0.254901,0.068125,313.224,1137.09)">
            <path d="M564,528.675L564,734.325C564,737.457 563.216,740 562.25,740L558.75,740C557.784,740 557,737.457 557,734.325L557,528.675C557,525.543 557.784,523 558.75,523L562.25,523C563.216,523 564,525.543 564,528.675Z" style="fill:rgb(234,179,8);stroke:black;stroke-width:4.74px;"/>
        </g>
    </g>
</svg>
