<?xml version="1.0" encoding="UTF-8" standalone="no"?><!DOCTYPE svg PUBLIC "-//W3C//DTD SVG 1.1//EN" "http://www.w3.org/Graphics/SVG/1.1/DTD/svg11.dtd"><svg width="100%" height="100%" viewBox="0 0 32 32" version="1.1" xmlns="http://www.w3.org/2000/svg" xmlns:xlink="http://www.w3.org/1999/xlink" xml:space="preserve" xmlns:serif="http://www.serif.com/" style="fill-rule:evenodd;clip-rule:evenodd;stroke-linejoin:round;stroke-miterlimit:2;"><g><path d="M18.426,5.599l-0.072,-0.099c-0.003,-0 -0.005,-0.002 -0.007,-0.004c-0.099,-0.105 -0.234,-0.172 -0.388,-0.172c-0.18,0 -0.338,0.091 -0.442,0.229l-5.567,5.708c0,-0 -0.191,0.224 -0.436,0.257c-0.245,-0.033 -0.437,-0.257 -0.437,-0.257l-5.567,-5.708c-0.103,-0.138 -0.261,-0.229 -0.44,-0.229c-0.155,0 -0.291,0.067 -0.39,0.172c-0.002,0.002 -0.004,0.004 -0.006,0.004l-0.072,0.099c-0.054,0.088 -0.085,0.195 -0.085,0.308l-0.616,14.053c-0.008,0.192 0.14,0.355 0.322,0.355l2.906,-0c0.175,-0 0.319,-0.149 0.321,-0.333l0.233,-6.369c0.008,-0.315 0.341,-0.451 0.575,-0.202l2.611,2.624c0.181,0.173 0.377,0.315 0.634,0.315l0.021,-0c0.257,-0 0.453,-0.142 0.634,-0.315l2.612,-2.624c0.232,-0.249 0.566,-0.113 0.574,0.202l0.233,6.369c0.002,0.184 0.146,0.333 0.322,0.333l2.906,-0c0.181,-0 0.329,-0.163 0.321,-0.355l-0.616,-14.053c-0,-0.113 -0.031,-0.22 -0.084,-0.308" style="fill:#756daf;fill-rule:nonzero;"/><path d="M23.964,7.863l3.589,-0c0.304,-0.016 0.546,-0.268 0.546,-0.575l-0,-1.491c-0,-0.317 -0.258,-0.574 -0.575,-0.574l-6.129,-0c-0.317,-0 -0.573,0.256 -0.573,0.572l-0,9.849c-0,0.318 0.257,0.575 0.574,0.575l6.128,0c0.317,0 0.575,-0.257 0.575,-0.575l-0,-1.363c-0,-0.317 -0.257,-0.574 -0.573,-0.574l-3.562,0c-0.153,0 -0.276,-0.124 -0.276,-0.275l-0,-1.215c-0,-0.152 0.123,-0.276 0.276,-0.276l2.867,-0c0.196,-0.013 0.349,-0.175 0.349,-0.373l-0,-1.667c-0,-0.201 -0.161,-0.367 -0.361,-0.373l-2.855,-0c-0.153,-0 -0.276,-0.124 -0.276,-0.276l-0,-1.114c-0,-0.152 0.123,-0.275 0.276,-0.275" style="fill:#756daf;fill-rule:nonzero;"/><path d="M28.099,17.63c-0,-0.122 -0.14,-0.195 -0.236,-0.122c-0.241,0.182 -0.57,0.294 -0.931,0.294l-4.4,-0c-0.945,-0 -1.71,0.765 -1.71,1.709l-0,0.975c-0,0.122 0.139,0.195 0.236,0.122c0.241,-0.182 0.569,-0.294 0.93,-0.294l4.401,-0c0.944,-0 1.71,-0.765 1.71,-1.709l-0,-0.975Z" style="fill:#756daf;fill-rule:nonzero;"/><path d="M27.688,25.226c0.008,-0 0.013,0.005 0.013,0.012l0,0.031c0,0.009 -0.006,0.014 -0.013,0.014l-0.079,0l0,0.252c0,0.007 -0.005,0.014 -0.013,0.014l-0.031,0c-0.008,0 -0.014,-0.007 -0.014,-0.014l-0,-0.252l-0.078,0c-0.008,0 -0.013,-0.005 -0.013,-0.014l-0,-0.031c-0,-0.007 0.005,-0.012 0.013,-0.012l0.215,-0Zm0.399,-0c0.007,-0 0.012,0.005 0.012,0.012l-0,0.297c-0,0.007 -0.005,0.014 -0.014,0.014l-0.03,0c-0.008,0 -0.014,-0.007 -0.014,-0.014l0,-0.183l-0.107,0.185c-0.003,0.005 -0.008,0.01 -0.014,0.01l-0.002,-0c-0.007,-0 -0.011,-0.003 -0.014,-0.01l-0.104,-0.185l0,0.183c0,0.007 -0.005,0.014 -0.013,0.014l-0.031,0c-0.008,0 -0.013,-0.007 -0.013,-0.014l-0,-0.297c-0,-0.007 0.005,-0.012 0.013,-0.012l0.033,-0c0.007,-0 0.011,0.002 0.014,0.007l0.116,0.211l0.117,-0.211c0.002,-0.005 0.007,-0.007 0.014,-0.007l0.037,-0Z" style="fill:#756daf;fill-rule:nonzero;"/><path d="M10.198,24.382c-0.166,-0.039 -0.245,-0.063 -0.245,-0.13c-0,-0.06 0.047,-0.096 0.142,-0.091c0.138,0.008 0.341,0.114 0.357,0.122c0.035,0.016 0.075,0.016 0.103,-0.028l0.217,-0.313c0.028,-0.04 0.009,-0.083 -0.043,-0.11c-0.19,-0.112 -0.357,-0.183 -0.642,-0.18c-0.484,0.009 -0.721,0.282 -0.717,0.572c0.004,0.269 0.207,0.522 0.555,0.61c0.253,0.067 0.305,0.095 0.305,0.159c0,0.063 -0.047,0.094 -0.143,0.091c-0.147,-0.009 -0.412,-0.147 -0.439,-0.163c-0.052,-0.024 -0.084,-0.016 -0.119,0.039l-0.198,0.298c-0.016,0.028 -0.004,0.075 0.024,0.095c0.099,0.079 0.407,0.242 0.724,0.237c0.476,-0.004 0.781,-0.269 0.781,-0.586c0,-0.344 -0.305,-0.535 -0.662,-0.622" style="fill:#756daf;fill-rule:nonzero;"/><path d="M11.914,24.382c-0.167,-0.039 -0.246,-0.063 -0.246,-0.13c0,-0.06 0.048,-0.096 0.143,-0.091c0.139,0.007 0.341,0.114 0.357,0.122c0.035,0.016 0.075,0.016 0.103,-0.028l0.217,-0.313c0.028,-0.04 0.009,-0.083 -0.043,-0.11c-0.19,-0.112 -0.357,-0.183 -0.642,-0.179c-0.483,0.008 -0.721,0.282 -0.717,0.571c0.004,0.269 0.206,0.522 0.555,0.61c0.253,0.068 0.305,0.095 0.305,0.159c-0,0.063 -0.048,0.094 -0.143,0.091c-0.147,-0.009 -0.412,-0.147 -0.44,-0.163c-0.051,-0.024 -0.083,-0.016 -0.118,0.04l-0.198,0.297c-0.017,0.028 -0.004,0.075 0.024,0.095c0.098,0.079 0.407,0.242 0.724,0.237c0.476,-0.004 0.781,-0.269 0.781,-0.586c-0,-0.344 -0.305,-0.535 -0.662,-0.622" style="fill:#756daf;fill-rule:nonzero;"/><path d="M6.808,22.466c-0.036,-0 -0.064,0.019 -0.091,0.047l-1.151,1.181c-0,-0 -0.026,0.03 -0.062,0.045c-0.018,0.007 -0.038,0.007 -0.056,-0c-0.037,-0.015 -0.063,-0.045 -0.063,-0.045l-1.15,-1.181c-0.027,-0.028 -0.055,-0.047 -0.092,-0.047c-0.096,-0 -0.114,0.097 -0.114,0.121l-0.127,2.906c-0.002,0.039 0.029,0.073 0.066,0.073l0.601,0c0.036,0 0.066,-0.031 0.067,-0.068l0.048,-1.339c0.002,-0.065 0.068,-0.092 0.118,-0.042l0.541,0.543c0.037,0.036 0.078,0.065 0.131,0.065l0.004,-0c0.053,-0 0.094,-0.029 0.131,-0.065l0.54,-0.543c0.05,-0.05 0.117,-0.023 0.119,0.042l0.048,1.339c0.001,0.037 0.03,0.068 0.067,0.068l0.6,0c0.038,0 0.069,-0.034 0.067,-0.073l-0.127,-2.906c-0,-0.024 -0.018,-0.121 -0.115,-0.121" style="fill:#756daf;fill-rule:nonzero;"/><path d="M18.502,24.822c0.185,-0.024 0.293,-0.139 0.297,-0.317c0.008,-0.424 -0.321,-0.848 -0.916,-0.848c-0.546,-0 -0.946,0.448 -0.942,0.967c0.004,0.562 0.432,0.963 0.982,0.966c0.349,0.005 0.622,-0.111 0.789,-0.332c0.027,-0.04 0.011,-0.072 -0.012,-0.107l-0.107,-0.167c-0.024,-0.036 -0.068,-0.032 -0.119,-0.012c-0.123,0.052 -0.335,0.11 -0.548,0.086c-0.182,-0.019 -0.338,-0.091 -0.372,-0.232c0.242,0.028 0.619,0.032 0.948,-0.004m-0.936,-0.404c0.015,-0.129 0.145,-0.245 0.328,-0.25c0.244,-0.013 0.361,0.136 0.31,0.25c-0.174,0.017 -0.456,0.017 -0.638,0" style="fill:#756daf;fill-rule:nonzero;"/><path d="M16.588,25.57c-0.293,-0.14 -0.749,-0.143 -1.046,-0.181c-0.171,-0.027 -0.268,-0.076 -0.246,-0.146c0.016,-0.047 0.064,-0.085 0.194,-0.053c0.095,0.024 0.203,0.048 0.329,0.052c0.495,0.02 0.875,-0.195 0.883,-0.71c0.005,-0.154 -0.035,-0.285 -0.087,-0.381c0.052,-0.015 0.147,-0.031 0.15,-0.078l0.025,-0.301c0.003,-0.048 -0.036,-0.08 -0.08,-0.08c-0.324,0.016 -0.427,0 -0.61,-0.016c-0.166,-0.015 -0.222,-0.024 -0.301,-0.024c-0.499,0 -0.884,0.397 -0.875,0.861c0.005,0.19 0.086,0.347 0.175,0.445c-0.153,-0 -0.323,0.105 -0.323,0.305c-0,0.276 0.224,0.406 0.455,0.451c-0.148,0.035 -0.355,0.113 -0.383,0.354c-0.051,0.456 0.372,0.709 0.923,0.709c0.61,0 1.154,-0.226 1.133,-0.713c-0.008,-0.204 -0.098,-0.39 -0.316,-0.494m-0.762,-1.324c0.152,-0 0.268,0.11 0.268,0.241c0,0.134 -0.116,0.241 -0.268,0.241c-0.147,0 -0.271,-0.107 -0.271,-0.241c-0,-0.131 0.124,-0.241 0.271,-0.241m0.014,2.045c-0.192,-0 -0.371,-0.022 -0.387,-0.19c-0.012,-0.131 0.054,-0.24 0.236,-0.24c0.097,-0 0.306,0.027 0.436,0.076c0.086,0.032 0.1,0.104 0.103,0.137c0.012,0.157 -0.148,0.217 -0.388,0.217" style="fill:#756daf;fill-rule:nonzero;"/><path d="M9.058,24.33c0.019,-0.432 -0.329,-0.666 -0.785,-0.674c-0.293,-0.008 -0.582,0.072 -0.776,0.171c-0.036,0.02 -0.052,0.059 -0.04,0.103l0.1,0.333c0.011,0.043 0.058,0.059 0.11,0.039c0.235,-0.099 0.455,-0.115 0.599,-0.094c0.129,0.019 0.166,0.091 0.167,0.144c-0.848,0.136 -1.202,0.362 -1.087,0.849c0.092,0.385 0.539,0.413 0.785,0.393c0.202,-0.017 0.297,-0.091 0.384,-0.151c0.02,0.064 0.072,0.123 0.143,0.123l0.368,0c0.051,0 0.076,-0.047 0.068,-0.099c-0.052,-0.404 -0.056,-0.733 -0.036,-1.137m-1.029,0.793c-0.128,-0.02 -0.142,-0.156 -0.06,-0.216c0.094,-0.069 0.279,-0.109 0.478,-0.118l0.01,0.195c-0.096,0.084 -0.272,0.167 -0.428,0.139" style="fill:#756daf;fill-rule:nonzero;"/><path d="M14.492,24.33c0.019,-0.432 -0.329,-0.666 -0.785,-0.674c-0.293,-0.008 -0.583,0.072 -0.776,0.171c-0.036,0.02 -0.052,0.059 -0.04,0.103l0.099,0.333c0.012,0.043 0.059,0.059 0.111,0.039c0.234,-0.099 0.454,-0.115 0.599,-0.094c0.128,0.019 0.166,0.091 0.167,0.144c-0.848,0.136 -1.202,0.362 -1.087,0.849c0.091,0.385 0.538,0.413 0.784,0.393c0.202,-0.017 0.298,-0.091 0.384,-0.151c0.02,0.064 0.072,0.123 0.144,0.123l0.368,0c0.051,0 0.075,-0.047 0.067,-0.099c-0.052,-0.404 -0.055,-0.733 -0.035,-1.137m-1.029,0.793c-0.128,-0.02 -0.143,-0.156 -0.061,-0.216c0.095,-0.069 0.28,-0.109 0.478,-0.118l0.01,0.195c-0.096,0.084 -0.271,0.167 -0.427,0.139" style="fill:#756daf;fill-rule:nonzero;"/><path d="M24.266,25.218l0,-0.789c-0.008,-0.475 -0.393,-0.784 -0.828,-0.776c-0.201,0.004 -0.345,0.076 -0.485,0.173c-0.011,0.008 -0.026,0.005 -0.035,-0.006c-0.023,-0.03 -0.041,-0.068 -0.056,-0.104c-0.01,-0.024 -0.033,-0.039 -0.058,-0.039l-0.397,0c-0.042,0 -0.075,0.033 -0.075,0.076l-0,1.727c-0,0.047 0.031,0.086 0.079,0.086l0.503,0c0.044,0 0.079,-0.039 0.079,-0.083l0,-1.034c0.157,-0.245 0.615,-0.22 0.615,0.189l0,0.723c0,0.119 0.071,0.205 0.202,0.205l0.44,0c0.039,0 0.059,-0.046 0.048,-0.098c-0.017,-0.072 -0.028,-0.139 -0.032,-0.25" style="fill:#756daf;fill-rule:nonzero;"/><path d="M28.025,23.677l-0.547,-0c-0.047,-0 -0.075,0.02 -0.095,0.059l-0.368,0.817l-0.396,-0.817c-0.02,-0.039 -0.048,-0.059 -0.091,-0.059l-0.944,-0c-0.044,-0 -0.06,0.032 -0.08,0.079l-0.269,0.63c-0.008,0.008 -0.008,0.008 -0.012,0l-0.273,-0.63c-0.02,-0.047 -0.036,-0.079 -0.079,-0.079l-0.555,-0c-0.052,-0 -0.079,0.032 -0.056,0.079l0.864,1.751c0.016,0.04 0.043,0.071 0.083,0.071l0.044,0c0.036,0 0.071,-0.036 0.087,-0.071l0.721,-1.467l0.623,1.182l-0.817,1.419c-0.047,0.078 -0.079,0.133 0.018,0.133l0.53,-0c0.086,-0 0.097,-0.04 0.12,-0.08l1.555,-2.922c0.028,-0.056 -0.004,-0.095 -0.063,-0.095" style="fill:#756daf;fill-rule:nonzero;"/><path d="M21.958,22.539l-1.717,0.001c-0.102,-0 -0.185,0.082 -0.185,0.185l0,2.66c0,0.103 0.083,0.181 0.185,0.181l1.717,0c0.057,0 0.103,-0.038 0.103,-0.096l0,-0.473c0,-0.057 -0.046,-0.106 -0.103,-0.106l-1.083,-0c-0.042,-0 -0.076,-0.034 -0.076,-0.077l0,-0.319c0,-0.058 0.047,-0.104 0.104,-0.104l0.718,0c0.056,0 0.103,-0.046 0.103,-0.104l-0,-0.473c-0,-0.056 -0.047,-0.103 -0.103,-0.103l-0.718,0c-0.057,0 -0.104,-0.046 -0.104,-0.104l0,-0.31c0,-0.042 0.034,-0.076 0.076,-0.076l1.083,-0c0.057,-0 0.103,-0.048 0.103,-0.105l0,-0.473c0,-0.057 -0.046,-0.104 -0.103,-0.104" style="fill:#756daf;fill-rule:nonzero;"/></g></svg>